<?xml version="1.0" encoding="utf-8"?>
<svg viewBox="0 0 1000 1500" xmlns="http://www.w3.org/2000/svg" xmlns:bx="https://boxy-svg.com">
  <defs>
    <filter id="drop-shadow-filter-1" color-interpolation-filters="sRGB" x="-50%" y="-50%" width="200%" height="200%" bx:preset="drop-shadow 1 0 0 10 0.4 rgba(0,0,0,0.3)">
      <feGaussianBlur in="SourceAlpha" stdDeviation="10"/>
      <feOffset dx="0" dy="0"/>
      <feComponentTransfer result="offsetblur">
        <feFuncA id="spread-ctrl" type="linear" slope="0.8"/>
      </feComponentTransfer>
      <feFlood flood-color="rgba(0,0,0,0.3)"/>
      <feComposite in2="offsetblur" operator="in"/>
      <feMerge>
        <feMergeNode/>
        <feMergeNode in="SourceGraphic"/>
      </feMerge>
    </filter>
    <bx:export>
      <bx:file format="png" path="popup-light.png"/>
    </bx:export>
    <linearGradient gradientUnits="userSpaceOnUse" x1="499.617" y1="374" x2="499.617" y2="394" id="gradient-0" gradientTransform="matrix(1.1, 0, 0, 0.65, -49.577511, 274.900513)">
      <stop offset="0" style="stop-opacity: 0.14;"/>
      <stop offset="1" style="stop-opacity: 0;"/>
    </linearGradient>
    <linearGradient gradientUnits="userSpaceOnUse" x1="499.617" y1="374" x2="499.617" y2="394" id="gradient-3" gradientTransform="matrix(1.1, 0, 0, 0.65, -49.578064, -1510.155762)">
      <stop offset="0" style="stop-opacity: 0.14;"/>
      <stop offset="1" style="stop-opacity: 0;"/>
    </linearGradient>
    <linearGradient gradientUnits="userSpaceOnUse" x1="623.617" y1="1020" x2="623.617" y2="1076" id="gradient-1" gradientTransform="matrix(1.200875, 0, 0, 0.964286, -401.383194, 323.417629)">
      <stop offset="0" style="stop-color: rgb(255, 255, 255);"/>
      <stop offset="1" style="stop-color: rgb(231, 230, 230);"/>
    </linearGradient>
    <linearGradient gradientUnits="userSpaceOnUse" x1="623.617" y1="1020" x2="623.617" y2="1076" id="gradient-2" gradientTransform="matrix(1.200875, 0, 0, 0.964286, -96.383438, 323.417629)">
      <stop offset="0" style="stop-color: rgb(46, 157, 255);"/>
      <stop offset="1" style="stop-color: rgb(0, 123, 255);"/>
    </linearGradient>
    <filter id="drop-shadow-filter-2" bx:preset="drop-shadow 1 0 1 1.5 0.5 #0000004d" color-interpolation-filters="sRGB" x="-50%" y="-50%" width="200%" height="200%">
      <feGaussianBlur in="SourceAlpha" stdDeviation="1.5"/>
      <feOffset dx="0" dy="1"/>
      <feComponentTransfer result="offsetblur">
        <feFuncA id="spread-ctrl-2" type="linear" slope="1"/>
      </feComponentTransfer>
      <feFlood flood-color="#0000004d"/>
      <feComposite in2="offsetblur" operator="in"/>
      <feMerge>
        <feMergeNode/>
        <feMergeNode in="SourceGraphic"/>
      </feMerge>
    </filter>
    <filter id="drop-shadow-filter-0" bx:preset="drop-shadow 1 0 1 1.5 0.5 #0000004d" color-interpolation-filters="sRGB" x="-50%" y="-50%" width="200%" height="200%">
      <feGaussianBlur in="SourceAlpha" stdDeviation="1.5"/>
      <feOffset dx="0" dy="1"/>
      <feComponentTransfer result="offsetblur">
        <feFuncA id="spread-ctrl-2" type="linear" slope="1"/>
      </feComponentTransfer>
      <feFlood flood-color="#0000004d"/>
      <feComposite in2="offsetblur" operator="in"/>
      <feMerge>
        <feMergeNode/>
        <feMergeNode in="SourceGraphic"/>
      </feMerge>
    </filter>
  </defs>
  <rect width="1000" height="1500" style="fill: rgb(227, 228, 229);"/>
  <g>
    <g>
      <rect style="stroke-width: 2; stroke: rgb(198, 198, 198); fill: rgb(255, 255, 255); filter: url(&quot;#drop-shadow-filter-1&quot;);" x="169" y="76" width="662" height="1326" rx="20" ry="20"/>
      <g>
        <path d="M 169 124 L 178 124 L 178 191 L 169 191 C 169 174.25 146 165.408 146 157.5 C 146 149.556 169 140.75 169 124 Z" style="stroke-width: 2; filter: none; stroke: rgb(198, 198, 198); fill: rgb(255, 255, 255);"/>
        <rect x="170" y="123" width="9" height="69" style="fill: rgb(255, 255, 255);"/>
      </g>
    </g>
    <g>
      <ellipse style="stroke-width: 1.5; fill: rgb(255, 97, 88); stroke: rgb(226, 65, 56);" cx="202" cy="109" rx="13" ry="13"/>
      <ellipse style="stroke-width: 1.5; stroke: rgb(225, 159, 38); fill: rgb(254, 188, 46);" cx="248" cy="109" rx="13" ry="13"/>
      <ellipse style="stroke-width: 1.5; fill: rgb(39, 200, 64); stroke: rgb(29, 171, 39);" cx="294" cy="109" rx="13" ry="13"/>
      <text style="fill: rgb(186, 186, 186); font-family: &quot;SF Pro&quot;; font-size: 27px; font-weight: 700; white-space: pre; stroke-width: 1;" x="338.33" y="118.735">RWX Editor</text>
      <line style="fill: none; stroke-width: 2; stroke: rgb(230, 230, 230);" x1="170" y1="140" x2="830" y2="140.082"/>
    </g>
    <g>
      <g>
        <rect x="196.398" y="-290.63" width="280" height="53" style="stroke-width: 1; filter: none; transform-origin: 2.014px -27.869px; fill: rgba(0, 0, 0, 0.04);" transform="matrix(1, -0.000052, 0, 1, -26.380785, 431.650469)"/>
        <rect x="263.735" y="-290.63" width="376" height="53" style="stroke-width: 1; filter: none; transform-origin: 2.705px -27.869px; fill: rgba(0, 0, 0, 0.04);" transform="matrix(1, -0.000052, 0, 1, 190.247818, 431.653912)"/>
        <rect x="196.398" y="-290.63" width="280" height="53" style="stroke-width: 1; filter: none; transform-origin: 2.014px -27.869px; fill: rgba(0, 0, 0, 0.04);" transform="matrix(1, -0.000052, 0, 1, -26.380785, 539.65053)"/>
        <rect x="263.735" y="-290.63" width="376" height="53" style="stroke-width: 1; filter: none; transform-origin: 2.705px -27.869px; fill: rgba(0, 0, 0, 0.04);" transform="matrix(1, -0.000052, 0, 1, 190.247818, 539.656476)"/>
        <rect x="196.398" y="-290.63" width="280" height="53" style="stroke-width: 1; filter: none; transform-origin: 2.014px -27.869px; fill: rgba(0, 0, 0, 0.04);" transform="matrix(1, -0.000052, 0, 1, -26.380785, 648.650469)"/>
        <rect x="263.735" y="-290.63" width="376" height="53" style="stroke-width: 1; filter: none; transform-origin: 2.705px -27.869px; fill: rgba(0, 0, 0, 0.04);" transform="matrix(1, -0.000052, 0, 1, 190.247818, 648.656415)"/>
        <rect x="196.398" y="-290.63" width="280" height="53" style="stroke-width: 1; filter: none; transform-origin: 2.014px -27.869px; fill: rgba(0, 0, 0, 0.04);" transform="matrix(1, -0.000052, 0, 1, -26.380785, 755.650469)"/>
        <rect x="263.735" y="-290.63" width="376" height="53" style="stroke-width: 1; filter: none; transform-origin: 2.705px -27.869px; fill: rgba(0, 0, 0, 0.04);" transform="matrix(1, -0.000052, 0, 1, 190.247818, 755.656415)"/>
      </g>
      <g>
        <g>
          <text style="fill: rgb(32, 32, 32); font-family: &quot;SF Pro&quot;; font-size: 25.7px; letter-spacing: 0.3px; white-space: pre; filter: none;" transform="matrix(1, -0.000916, 0, 1, 172.31427, -533.452515)" x="206.863" y="710.918">Type</text>
          <text style="fill: rgb(32, 32, 32); font-family: &quot;SF Pro&quot;; font-size: 25.7px; letter-spacing: 0.3px; white-space: pre; filter: none;" x="206.863" y="710.918" transform="matrix(1, -0.000916, 0, 1, 263.367188, -533.461792)">file</text>
        </g>
        <g>
          <text style="fill: rgb(32, 32, 32); font-family: &quot;SF Pro&quot;; font-size: 25.7px; letter-spacing: 0.3px; text-anchor: end; white-space: pre; filter: none;" transform="matrix(1, -0.000916, 0, 1, 226.484314, -479.563995)" x="206.863" y="710.918">Name</text>
          <text style="fill: rgb(32, 32, 32); font-family: &quot;SF Pro&quot;; font-size: 25.7px; letter-spacing: 0.3px; white-space: pre; filter: none;" transform="matrix(1, -0.000916, 0, 1, 265.005493, -479.454865)" x="206.863" y="710.918">RWX Editor.icns</text>
        </g>
        <g>
          <text style="fill: rgb(32, 32, 32); font-family: &quot;SF Pro&quot;; font-size: 25.7px; letter-spacing: 0.3px; text-anchor: end; white-space: pre; filter: none;" transform="matrix(1, -0.000916, 0, 1, 226.745667, -425.614227)" x="206.863" y="710.918">Path</text>
          <text style="fill: rgb(32, 32, 32); font-family: &quot;SF Pro&quot;; font-size: 25.7px; letter-spacing: 0.3px; white-space: pre; filter: none;" transform="matrix(1, -0.000916, 0, 1, 263.459595, -425.483612)" x="206.863" y="710.918">/Users/demo/Desktop/</text>
        </g>
        <g>
          <text style="fill: rgb(32, 32, 32); font-family: &quot;SF Pro&quot;; font-size: 25.7px; letter-spacing: 0.3px; text-anchor: end; white-space: pre; filter: none;" transform="matrix(1, -0.000916, 0, 1, 226.644897, -371.679169)" x="206.863" y="710.918">Reference Count</text>
          <text style="fill: rgb(32, 32, 32); font-family: &quot;SF Pro&quot;; font-size: 25.7px; letter-spacing: 0.3px; white-space: pre; filter: none;" transform="matrix(1, -0.000916, 0, 1, 264.031189, -371.562592)" x="206.863" y="710.918">1 pcs.</text>
        </g>
        <g>
          <g>
            <text style="fill: rgb(32, 32, 32); font-family: &quot;SF Pro&quot;; font-size: 25.7px; letter-spacing: 0.3px; text-anchor: end; white-space: pre; filter: none;" x="409.141" y="393.111">Created</text>
            <path d="M 419.521 390.129 C 419.521 388.209 420.871 386.647 422.861 386.011 L 422.861 387.498 C 421.651 387.989 420.871 388.951 420.871 390.129 C 420.871 391.889 422.601 393.229 424.891 393.229 C 427.181 393.229 428.901 391.889 428.901 390.129 C 428.901 388.939 428.121 387.969 426.881 387.465 L 426.881 385.995 C 428.891 386.626 430.261 388.2 430.261 390.129 C 430.261 392.649 427.941 394.58 424.891 394.58 C 421.841 394.58 419.521 392.649 419.521 390.129 Z M 423.921 390.321 L 423.921 382.589 C 422.131 382.168 420.791 380.564 420.791 378.622 C 420.791 376.409 422.621 374.58 424.861 374.58 C 427.091 374.58 428.911 376.392 428.911 378.622 C 428.911 380.54 427.601 382.151 425.821 382.583 L 425.821 390.321 C 425.821 390.669 425.391 390.927 424.861 390.927 C 424.341 390.927 423.921 390.669 423.921 390.321 Z" style="stroke-width: 1; filter: none; fill: rgb(2, 120, 255);"/>
          </g>
          <text style="fill: rgb(32, 32, 32); font-family: &quot;SF Pro&quot;; font-size: 25.7px; letter-spacing: 0.3px; white-space: pre;" x="470.23" y="393.514">1 Jan 2026 at 00:00:00</text>
        </g>
        <g>
          <g>
            <text style="fill: rgb(32, 32, 32); font-family: &quot;SF Pro&quot;; font-size: 25.7px; letter-spacing: 0.3px; text-anchor: end; white-space: pre; filter: none;" x="409.431" y="447">Updated</text>
            <path d="M 419.001 444.314 C 419.001 442.394 420.351 440.832 422.341 440.196 L 422.341 441.683 C 421.131 442.174 420.351 443.136 420.351 444.314 C 420.351 446.074 422.081 447.414 424.371 447.414 C 426.661 447.414 428.381 446.074 428.381 444.314 C 428.381 443.124 427.601 442.154 426.361 441.65 L 426.361 440.18 C 428.371 440.811 429.741 442.385 429.741 444.314 C 429.741 446.834 427.421 448.765 424.371 448.765 C 421.321 448.765 419.001 446.834 419.001 444.314 Z M 423.401 444.506 L 423.401 436.774 C 421.611 436.353 420.271 434.749 420.271 432.807 C 420.271 430.594 422.101 428.765 424.341 428.765 C 426.571 428.765 428.391 430.577 428.391 432.807 C 428.391 434.725 427.081 436.336 425.301 436.768 L 425.301 444.506 C 425.301 444.854 424.871 445.112 424.341 445.112 C 423.821 445.112 423.401 444.854 423.401 444.506 Z" style="stroke-width: 1; filter: none; fill: rgb(2, 120, 255);"/>
          </g>
          <text style="fill: rgb(32, 32, 32); font-family: &quot;SF Pro&quot;; font-size: 25.7px; letter-spacing: 0.3px; white-space: pre;" x="470.61" y="447">1 Jan 2026 at 00:00:00</text>
        </g>
        <g>
          <g>
            <text style="fill: rgb(32, 32, 32); font-family: &quot;SF Pro&quot;; font-size: 25.7px; letter-spacing: 0.3px; text-anchor: end; white-space: pre; filter: none;" x="409.431" y="500.889">Size</text>
            <path d="M 419.491 498.858 C 419.491 496.938 420.841 495.376 422.831 494.74 L 422.831 496.227 C 421.621 496.718 420.841 497.68 420.841 498.858 C 420.841 500.618 422.571 501.958 424.861 501.958 C 427.151 501.958 428.871 500.618 428.871 498.858 C 428.871 497.668 428.091 496.698 426.851 496.194 L 426.851 494.724 C 428.861 495.355 430.231 496.929 430.231 498.858 C 430.231 501.378 427.911 503.309 424.861 503.309 C 421.811 503.309 419.491 501.378 419.491 498.858 Z M 423.891 499.05 L 423.891 491.318 C 422.101 490.897 420.761 489.293 420.761 487.351 C 420.761 485.138 422.591 483.309 424.831 483.309 C 427.061 483.309 428.881 485.121 428.881 487.351 C 428.881 489.269 427.571 490.88 425.791 491.312 L 425.791 499.05 C 425.791 499.398 425.361 499.656 424.831 499.656 C 424.311 499.656 423.891 499.398 423.891 499.05 Z" style="stroke-width: 1; filter: none; fill: rgb(2, 122, 255);"/>
          </g>
          <text style="fill: rgb(32, 32, 32); font-family: &quot;SF Pro&quot;; font-size: 25.7px; letter-spacing: 0.3px; white-space: pre; filter: none;" transform="matrix(1, 0, 0, 1, 120.162964, 328.77652)"><tspan x="350.491" y="172.112">1 234 bytes</tspan><tspan x="350.491" dy="1em">​</tspan></text>
        </g>
      </g>
    </g>
    <rect x="170" y="518" width="660" height="13" style="fill: url(&quot;#gradient-0&quot;); stroke-width: 1;"/>
    <g>
      <g>
        <text style="fill: rgb(35, 35, 35); font-family: &quot;SF Pro&quot;; font-size: 27px; letter-spacing: 0.3px; text-anchor: middle; white-space: pre;" x="426.562" y="614.989">Owner</text>
        <text style="fill: rgb(35, 35, 35); font-family: &quot;SF Pro&quot;; font-size: 27px; letter-spacing: 0.3px; text-anchor: middle; white-space: pre;" transform="matrix(1, 0, 0, 1, -1018.018433, 347.131226)"><tspan x="1589.71" y="267.793">Group</tspan><tspan x="1589.71" dy="1em">​</tspan></text>
        <text style="fill: rgb(35, 35, 35); font-family: &quot;SF Pro&quot;; font-size: 27px; letter-spacing: 0.3px; white-space: pre;" transform="matrix(1, 0, 0, 1, -906.858826, 347.2612)"><tspan x="1589.71" y="267.793">Other</tspan><tspan x="1589.71" dy="1em">​</tspan></text>
      </g>
      <g>
        <text style="fill: rgb(35, 35, 35); font-family: &quot;SF Pro&quot;; font-size: 27px; letter-spacing: 0.3px; white-space: pre;" x="250.962" y="685.606">Read</text>
        <text style="fill: rgb(35, 35, 35); font-family: &quot;SF Pro&quot;; font-size: 27px; letter-spacing: 0.3px; white-space: pre;" x="248.579" y="765.694">Write</text>
        <text style="fill: rgb(35, 35, 35); font-family: &quot;SF Pro&quot;; font-size: 27px; letter-spacing: 0.3px; white-space: pre;" x="233.998" y="845.781">Execute</text>
      </g>
      <g>
        <ellipse style="fill: color(display-p3 0.254 0.572 0.158); stroke-width: 1;" cx="426.562" cy="676.08" rx="25" ry="25"/>
        <path style="stroke-linecap: round; stroke-linejoin: round; stroke-width: 4; stroke: rgb(255, 255, 255); fill: color(display-p3 0.254 0.572 0.158);" d="M 416.792 676.939 L 423.992 685.388 L 435.942 666.772"/>
      </g>
      <g>
        <ellipse style="fill: color(display-p3 0.837 0.461 0.047); stroke-width: 1;" cx="571.691" cy="676.08" rx="25" ry="25"/>
        <path style="stroke-linecap: round; stroke-linejoin: round; stroke-width: 4; stroke: rgb(255, 255, 255); fill: none;" d="M 561.921 676.939 L 569.121 685.388 L 581.071 666.772"/>
      </g>
      <g>
        <ellipse style="fill: color(display-p3 0.765 0.201 0.057); stroke-width: 1;" cx="716.821" cy="676.08" rx="25" ry="25"/>
        <path style="stroke-linecap: round; stroke-linejoin: round; stroke-width: 4; stroke: rgb(255, 255, 255); fill: none;" d="M 707.051 676.939 L 714.251 685.388 L 726.201 666.772"/>
      </g>
      <g>
        <ellipse style="fill: color(display-p3 0.254 0.572 0.158); stroke-width: 1;" cx="426.562" cy="756.168" rx="25" ry="25"/>
        <path style="stroke-linecap: round; stroke-linejoin: round; stroke-width: 4; stroke: rgb(255, 255, 255); fill: color(display-p3 0.254 0.572 0.158);" d="M 416.792 757.027 L 423.992 765.476 L 435.942 746.86"/>
      </g>
      <g>
        <ellipse style="fill: color(display-p3 0.837 0.461 0.047); stroke-width: 1;" cx="571.691" cy="756.168" rx="25" ry="25"/>
        <path style="stroke-linecap: round; stroke-linejoin: round; stroke-width: 4; stroke: rgb(255, 255, 255); fill: none;" d="M 561.922 757.026 L 569.122 765.475 L 581.072 746.859"/>
      </g>
      <ellipse style="stroke-width: 1; filter: none; fill: color(display-p3 0.032 0.032 0.032 / 0.049);" cx="716.821" cy="756.168" rx="25" ry="25"/>
      <g>
        <ellipse style="fill: color(display-p3 0.254 0.572 0.158); stroke-width: 1;" cx="426.562" cy="836.255" rx="25" ry="25"/>
        <path style="stroke-linecap: round; stroke-linejoin: round; stroke-width: 4; stroke: rgb(255, 255, 255); fill: color(display-p3 0.254 0.572 0.158);" d="M 416.792 837.114 L 423.992 845.563 L 435.942 826.947"/>
      </g>
      <ellipse style="stroke-width: 1; filter: none; fill: color(display-p3 0.032 0.032 0.032 / 0.049);" cx="571.691" cy="836.255" rx="25" ry="25"/>
      <ellipse style="stroke-width: 1; filter: none; fill: color(display-p3 0.032 0.032 0.032 / 0.049);" cx="716.821" cy="836.255" rx="25" ry="25"/>
    </g>
    <g>
      <g>
        <rect style="fill: rgb(201, 223, 244); stroke-width: 1;" x="304.363" y="940" width="181" height="52" rx="10" ry="10"/>
        <text style="fill: rgb(35, 35, 35); font-family: &quot;PT Mono&quot;; font-size: 29px; letter-spacing: -1.5px; white-space: pre; text-anchor: middle;" x="394.863" y="974.411">rwxrw-r--</text>
      </g>
      <g>
        <g>
          <rect style="fill: rgba(0, 0, 0, 0.055); stroke-width: 2; stroke: rgba(0, 0, 0, 0.15);" x="525.637" y="940" width="52" height="52" rx="18.307" ry="18.307"/>
          <text style="fill: rgb(35, 35, 35); font-family: &quot;SF Pro&quot;; font-size: 27px; letter-spacing: 0.3px; white-space: pre; text-anchor: middle;" x="551.637" y="975.89">7</text>
        </g>
        <g>
          <rect style="fill: rgba(0, 0, 0, 0.05); stroke: rgba(0, 0, 0, 0.15); stroke-width: 2;" x="584.637" y="940" width="52" height="52" rx="18" ry="18"/>
          <text style="fill: rgb(35, 35, 35); font-family: &quot;SF Pro&quot;; font-size: 27px; letter-spacing: 0.3px; white-space: pre; text-anchor: middle;" x="610.637" y="976.567">6</text>
        </g>
        <g>
          <rect style="fill: rgba(0, 0, 0, 0.05); stroke: rgba(0, 0, 0, 0.15); stroke-width: 2;" x="643.637" y="940" width="52" height="52" rx="18" ry="18"/>
          <text style="fill: rgb(35, 35, 35); font-family: &quot;SF Pro&quot;; font-size: 27px; letter-spacing: 0.3px; white-space: pre; text-anchor: middle;" x="669.637" y="975.89">4</text>
        </g>
      </g>
    </g>
    <g>
      <g>
        <text style="fill: rgb(35, 35, 35); font-family: &quot;SF Pro&quot;; font-size: 27px; letter-spacing: 0.3px; text-anchor: end; white-space: pre;" transform="matrix(0.998387, 0, 0, 1, 54.268005, 253.898819)" x="325.45" y="855.052">Owner</text>
        <text style="fill: rgb(35, 35, 35); font-family: &quot;SF Pro&quot;; font-size: 27px; letter-spacing: 0.3px; white-space: pre;" transform="matrix(0.998387, 0, 0, 1, -20.457825, 253.990662)" x="326.881" y="926.982">Group</text>
      </g>
      <g style="opacity: 0.5;">
        <g>
          <rect style="fill: rgba(0, 0, 0, 0.06); stroke-width: 2; stroke: rgba(0, 0, 0, 0.15);" x="1205.26" y="680.686" width="299.516" height="52" rx="18.307" ry="18.307" transform="matrix(0.999998, -0.00189, 0, 1.000002, -805.388367, 395.156738)"/>
          <text style="fill: rgb(35, 35, 35); font-family: &quot;SF Pro&quot;; font-size: 27px; letter-spacing: 0.3px; text-anchor: middle; white-space: pre;" x="571.009" y="854.923" transform="matrix(0.998387, 0, 0, 1, -20.457825, 253.990662)">demo</text>
        </g>
        <g>
          <rect style="fill: rgba(0, 0, 0, 0.06); stroke-width: 2; stroke: rgba(0, 0, 0, 0.15);" x="1205.27" y="680.686" width="299.516" height="52" rx="18.307" ry="18.307" transform="matrix(0.999998, -0.00189, 0, 1.000002, -805.318604, 467.086823)"/>
          <text style="fill: rgb(35, 35, 35); font-family: &quot;SF Pro&quot;; font-size: 27px; letter-spacing: 0.3px; stroke: rgba(0, 0, 0, 0.15); text-anchor: middle; white-space: pre;" x="571.088" y="926.854" transform="matrix(0.998387, 0, 0, 1, -20.457825, 253.990662)">staff</text>
        </g>
      </g>
    </g>
    <rect x="170" y="-1267" width="660" height="13" style="stroke-width: 1; fill: url(&quot;#gradient-3&quot;);" transform="matrix(1, 0, 0, -1, 0, 0)"/>
    <g>
      <path style="fill: rgba(0, 0, 0, 0.04);" d="M 170 1267 H 830 A 0 0 0 0 1 830 1267 V 1382 A 19 19 0 0 1 811 1401 H 189 A 19 19 0 0 1 170 1382 V 1267 A 0 0 0 0 1 170 1267 Z" bx:shape="rect 170 1267 660 134 0 0 0 0 0 0 0 19 19 0 19 19 2@32c62caf"/>
    </g>
    <g>
      <g>
        <rect x="210" y="1307" width="275" height="54" style="stroke-width: 1; fill: url(&quot;#gradient-1&quot;); filter: url(&quot;#drop-shadow-filter-2&quot;);" rx="10" ry="10"/>
        <text style="fill: rgb(35, 35, 35); font-family: &quot;SF Pro&quot;; font-size: 27px; text-anchor: middle; white-space: pre; stroke-width: 1; filter: none;" x="347.5" y="1343.58">cancel</text>
      </g>
      <g>
        <rect x="515" y="1307" width="275" height="54" style="stroke-width: 1; fill: url(&quot;#gradient-2&quot;); filter: url(&quot;#drop-shadow-filter-0&quot;);" rx="10" ry="10"/>
        <text style="fill: rgb(255, 255, 255); font-family: &quot;SF Pro&quot;; font-size: 27px; text-anchor: middle; white-space: pre; stroke-width: 1; filter: none;" x="652.5" y="1343.58">apply</text>
      </g>
    </g>
  </g>
</svg>